<svg xmlns="http://www.w3.org/2000/svg" width="50mm" height="10mm" viewBox="0 0 177.165 35.433">
    <g fill="none" stroke="#000">
        <path d="M6.819 28.11c-2.116.284.11-1.154-.253-1.516-.06-.06-.215.075-.253 0-.075-.15 0-.336 0-.505 0-.252.05-.51 0-.757-.036-.185-.193-.327-.252-.505-.027-.08 0-.169 0-.253v-.505-1.263-5.303-1.01c0-.169-.024-.339 0-.505.06-.425.182-.84.252-1.263.043-.253-.084-.505 0-.758.038-.113.23-.135.253-.252.099-.495 0-1.01 0-1.515 0-.084-.038-.178 0-.253.053-.106.208-.142.253-.252.128-.323.195-.668.252-1.01.005-.03-.007-1.256 0-1.263.06-.06.193.06.253 0 .119-.12-.12-.386 0-.505.06-.06.193.059.252 0 .052-.052-.05-.658 0-.758.053-.106.2-.146.253-.253.037-.075-.027-.332 0-.252.11.33.184.67.252 1.01.017.083-.037.177 0 .253.053.106.215.14.253.252.135.407.117.856.252 1.263.038.113.192.15.253.252.194.323.386.653.505 1.01.136.408.148.847.252 1.263.178.71.58 1.31.758 2.02.061.246-.113.532 0 .758.084.169.412.09.505.253.264.462.289 1.028.505 1.515.123.277.393.476.505.758.063.156-.062.348 0 .505.113.281.37.486.505.757.12.238.134.52.253.758.053.106.168.168.252.252.169.337.366.66.506 1.01.03.079 0 .169 0 .253.084.084.199.146.252.253.038.075-.06.193 0 .252.06.06.215-.075.253 0 .075.15-.054.345 0 .505.037.113.199.146.252.253.038.075-.06.193 0 .252.06.06.193-.059.253 0 .06.06-.038.178 0 .253.053.106.199.146.252.252.038.075-.06.193 0 .253.06.059.177-.038.253 0 .106.053.146.2.252.252.43.215.63-.587.758-.757.143-.19.362-.315.505-.505.385-.513.418-1.224.758-1.768.189-.303.612-.431.757-.758.208-.468.09-1.03.253-1.515.096-.288.382-.48.505-.757.216-.487.295-1.026.505-1.516.047-.11.208-.142.252-.252.13-.322.116-.691.253-1.01.12-.28.37-.487.505-.758.12-.238.16-.508.253-.758.159-.424.302-.857.505-1.262.053-.107.215-.14.252-.253.053-.16-.053-.345 0-.505.12-.357.28-.709.505-1.01.421-.561.253 1.206.253-.505 0-.73.314-.943.505-1.515.027-.08 0-.169 0-.253l.252-.505c.085-.168.193-.327.253-.505.066-.198-.106-.505 0-.505.402 0 .208.578.253.757.064.259.2.497.252.758.08.403-.068.857 0 1.263.057.342.203.666.253 1.01.035.25-.062.513 0 .758.028.115.235.134.252.252.083.583 0 1.179 0 1.768v10.859M36.87 21.29c-.978.13.557-.958.253-1.262-.06-.06-.177.038-.252 0-.107-.053-.137-.223-.253-.252-.181-.045-1.237 0-1.515 0H32.83c-.337 0-.68-.066-1.01 0-.117.023-.139.218-.253.252-.743.223-1.52.317-2.273.505-1.083.271-.563.276-1.767.758-.079.03-.178-.038-.253 0-.29.145-.351.527-.505.758-.066.099-.23.135-.253.252-.066.33.067.68 0 1.01-.023.117-.214.14-.252.253-.02.057-.008 1.745 0 1.768.06.178.193.326.252.505.027.08-.037.177 0 .252.125.25 1.014.675 1.263.758.33.11.677.157 1.01.252.256.073.493.224.758.253.502.056 1.01 0 1.515 0 .169 0 .339-.024.505 0 .425.06.837.2 1.263.252.195.024 1.841.036 2.02 0 .185-.037.33-.182.505-.252.592-.237 1.228-.398 1.768-.758.1-.066.168-.168.253-.252l.505-.505c.168-.169.362-.315.505-.505.113-.151.168-.337.252-.505.085-.169.183-.33.253-.506.099-.247.188-.499.252-.757.053-.21 0-.997 0-1.263v-.252c0-.084-.084-.253 0-.253.085 0 0 .168 0 .253v4.04c0 .086.046.874 0 1.01-.06.179-.193.327-.252.505-.053.16 0 .337 0 .506v1.262M53.033 20.028c-.832.52-1.693.995-2.525 1.516-.258.16-.493.357-.758.505-.494.274-1.01.505-1.515.757-.337.169-.693.303-1.01.505-.611.389-1.166.861-1.768 1.263-.409.272-.854.485-1.263.758-.35.233-.645.548-1.01.757-2.039 1.165.596-.826-1.515.758-.095.07-.2.146-.253.252-.037.075 0 .169 0 .253"/>
        <path d="M42.679 20.028c.42.421.815.871 1.263 1.263.228.2.52.315.757.505.186.149.322.353.505.505.647.539 1.347 1.01 2.02 1.515.674.505 1.32 1.049 2.02 1.516.662.44 1.36.822 2.021 1.262.253.169.52.316.758.505.186.15.319.357.505.505.237.19.515.323.758.506.095.07.146.199.252.252.075.038.193-.059.253 0 .06.06 0 .168 0 .253M58.589 28.362c.847-1.694.242-.301.757-2.02.153-.51.401-.994.506-1.516.066-.33-.034-.675 0-1.01.082-.827.353-1.945.505-2.778.294-1.617.252-1.075.252-2.272v-7.577c0-.203-.053-.851 0-1.01.06-.178.193-.326.253-.505.066-.197-.106-.505 0-.505.119 0 .186.154.252.253.325.487.259.687.505 1.262.149.346.337.674.505 1.01l.253.506c.168.168.382.3.505.505.137.228.148.513.253.757.148.346.336.674.505 1.01.336.674.622 1.375 1.01 2.02.061.103.2.147.252.253.12.238.154.51.253.758.07.175.193.326.252.505.11.33.124.688.253 1.01.044.11.2.146.252.253.723 1.445-.156.159.506 1.262.216.36.613.83.757 1.263.053.16-.075.354 0 .505.21.421.505.114.505.758v.252c0 .084-.06.193 0 .253s.193-.06.253 0c.126.126-.127.631 0 .757.06.06.193-.06.252 0 .06.06-.026.173 0 .253.06.178.193.326.253.505.046.14-.054.956 0 1.01.06.06.193-.06.252 0 .127.126-.126.631 0 .758.06.059.193-.06.253 0 .008.01 0 .696 0 .757 0 .169-.084.421.252.253.363-.182.39-.72.506-1.01.07-.175.193-.327.252-.505.11-.33.116-.691.253-1.01.12-.28.398-.474.505-.758.15-.402.083-.868.252-1.263.094-.219.422-.282.505-.505.878-2.34-.197-.653.505-2.525.133-.353.373-.658.505-1.01.253-.674.314-1.601.506-2.273.051-.181.168-.337.252-.505.168-.337.386-.653.505-1.01.053-.16 0-.337 0-.506.168-.252.37-.486.505-.757.038-.075-.026-.173 0-.253.06-.178.207-.322.253-.505.04-.163-.053-.345 0-.505.037-.113.186-.153.252-.252.105-.157.169-.337.253-.505l.252-.506c0-.084-.026-.172 0-.252.61-1.83-.072.398.505-.758.038-.075-.037-.177 0-.252a.578.578 0 0 1 .253-.253c.075-.038.215.075.253 0 .075-.15 0-.337 0-.505 0-.084-.06-.193 0-.252.059-.06.193.06.252 0 .12-.12-.119-.386 0-.505.06-.06.193.059.253 0 .06-.06-.06-.193 0-.253.336-.337.252.42.252-.253 0-.592-.06.12.253-.505.037-.075-.085-.252 0-.252.084 0 0 .168 0 .252v1.01c0 .263.053.797 0 1.01-.065.259-.21.496-.253.758-.041.25 0 .505 0 .758V14.472c0 .169.053.346 0 .505-.038.113-.215.14-.252.253-.136.407-.16.844-.253 1.263-.075.338-.21.665-.252 1.01-.042.334 0 .673 0 1.01 0 .084.037.177 0 .253-.054.106-.2.146-.253.252-.306.612-.253.685-.253 1.263 0 .1.054 1.155 0 1.262-.053.107-.199.146-.252.253-.037.075 0 1.508 0 1.768v3.788M78.287 21.544v2.02c0 .084-.038.177 0 .252.053.107.223.137.252.253.082.327-.081.683 0 1.01.065.258.2.497.253.758.033.165 0 .336 0 .505v1.262c0 .084-.06.193 0 .253s.177-.038.252 0c.107.053.146.2.253.253.075.038.17-.02.253 0 .258.064.496.2.757.252.33.066.674 0 1.01 0 .021 0 1.46.022 1.516 0 .281-.113.47-.41.757-.505.24-.08.51.05.758 0 .184-.037.326-.193.505-.253.466-.155.12.386.757-.252.06-.06-.046-.183 0-.253.132-.198.373-.307.505-.505.047-.07-.046-.182 0-.252.133-.198.4-.292.506-.505.15-.301-.082-.684 0-1.01.09-.366.413-.645.505-1.01.04-.164 0-.337 0-.506V22.05M96.722 21.796c-1.288-.194-2.248-1.065-3.535-1.263-.75-.115-1.516 0-2.273 0-.093 0-1-.01-1.01 0-.12.12.075.355 0 .506-.054.106-.215.14-.253.252-.053.16 0 .337 0 .505 0 .084-.02.17 0 .253.065.258.2.496.253.757.033.165-.101.37 0 .505.182.243.543.29.757.505.133.134.169.337.253.506.252.252.478.534.757.757.542.433 1.714.397 2.02 1.01.038.075-.059.193 0 .253.06.06.194-.06.253 0 .01.01 0 .917 0 1.01 0 .084.06.193 0 .253s-.193-.06-.252 0c-.06.06.06.193 0 .252-.06.06-.178-.038-.253 0-.106.053-.153.187-.252.253-.314.208-.697.296-1.01.505-.1.066-.143.208-.253.252-.734.294-.877.253-1.515.253-.093 0-1 .01-1.01 0-.06-.06-.06-.193 0-.253.059-.06.177.038.252 0 .107-.053.146-.2.253-.252.075-.038.168 0 .252 0h.505M104.55 11.442c.068.609-.664.958-.757 1.515-.055.332.056.678 0 1.01-.062.372-.406.647-.505 1.01-.204.75-.342 1.515-.505 2.273-.09.42-.192.838-.253 1.263-.047.333.056.678 0 1.01-.366 2.2-.104-.034-.505 1.768-.11.5-.128 1.019-.252 1.515-.046.183-.193.327-.253.505-.11.33-.142.681-.252 1.01-.06.179-.222.32-.253.506-.055.332.056.678 0 1.01-.062.371-.414.645-.505 1.01-.056.225 0 .97 0 1.263 0 .084.06.193 0 .252-.06.06-.193-.06-.252 0-.06.06 0 .168 0 .253v.252M98.995 19.018h8.586"/>
        <path d="M106.571 25.332c.681-.434 1.318-.153 2.02-.253.425-.06.842-.168 1.263-.252.421-.084.839-.188 1.263-.253 1.595-.245 1.893-.158 3.283-.505.258-.064.5-.188.757-.253.082-.02.178.038.253 0 .106-.053.146-.199.252-.252.076-.038.193.06.253 0s-.06-.193 0-.253.193.06.253 0c.059-.06 0-.168 0-.252v-.253c0-.606.11-.97-.253-1.515-.066-.099-.142-.208-.253-.252-.837-.335-1.653-.253-2.525-.253-1.435 0-2.878-.074-4.293.253-.442.101-.842.336-1.263.505l-2.525.505c-3.805.76 1.35-.35-2.526.757-.554.159-.435-.23-.757.253l-.253.505c0 .084.038.177 0 .252-.053.107-.215.14-.252.253-.08.24 0 .505 0 .758v1.262c0 .1-.054 1.155 0 1.263.053.106.215.14.252.253.054.16-.053.345 0 .505.038.113.158.18.253.252.243.182.494.355.757.505.327.187.674.337 1.01.505.337.169.65.397 1.01.505.491.147 1.02.129 1.516.253 2.237.56.74.466 2.778.757.333.048.673 0 1.01 0h1.768c.093 0 1 .01 1.01 0 .06-.06-.06-.193 0-.252.119-.12.354.075.505 0 .107-.053.146-.2.253-.253.075-.038.177.038.252 0 .107-.053.169-.168.253-.252.168-.168.373-.307.505-.505.046-.07 0-.169 0-.253v-.505M117.43 22.301c.162.02-.098 2.384 0 2.778.03.116.215.14.253.253.106.319-.15.709 0 1.01.037.075.215-.075.252 0 .104.206-.089.995 0 1.262.06.179.207.323.253.505.002.01-.001.757 0 .758.06.06.193-.06.252 0 .12.12-.119.386 0 .505.06.06.193-.06.253 0 .119.12-.12.386 0 .505.06.06.206.07.252 0 .148-.221.154-.51.253-.757.21-.525.535-.997.758-1.516.364-.85.184-.806.505-1.767.06-.179.221-.32.252-.505.056-.333 0-.674 0-1.01 0-.085-.06-.194 0-.253.06-.06.193.06.253 0 .62-.09.105-.536.252-.758.198-.297.505-.505.758-.757l.505-.505c.084-.084.153-.187.253-.253.156-.104.348-.148.505-.253.198-.132.292-.398.505-.505.075-.038.168 0 .252 0h.253M126.522 21.291v2.273c0 .166.047.615 0 .757-.06.179-.216.32-.253.506-.053.266 0 1.402 0 1.767v1.263c0 .166.048.615 0 .758-.06.178-.064.505-.252.505-.169 0 0-.337 0-.505v-.253-1.515c0-.168-.041-.342 0-.505.045-.183.155-.344.252-.505.156-.26.392-.476.505-.758.063-.156-.04-.342 0-.505.046-.183.169-.337.253-.505l.252-.505c.265-.53.467-1.19 1.01-1.515.229-.137.52-.134.758-.253.106-.053.14-.215.253-.252h.757c.06-.06-.06-.193 0-.253s.168 0 .253 0c.132 0 .943-.033 1.01 0 .106.053.168.168.252.253l.253.252c.325.325.604.548.758 1.01.052.159 0 .807 0 1.01 0 .169.053.346 0 .505-.038.113-.224.138-.253.253-.061.245.061.513 0 .758-.029.115-.187.153-.253.252-.208.313-.296.697-.505 1.01-.066.1-.186.154-.252.253-.105.156-.148.348-.253.505-.79 1.184.339-1.016-.252.758-.038.113-.146.199-.253.252-.075.038-.193-.06-.252 0-.06.06-.06.193 0 .253.192.192.446-.213.505-.253.156-.104.348-.148.505-.252.099-.066.168-.169.252-.253.169-.168.363-.315.505-.505.331-.441.25-.753.506-1.263.053-.106.168-.168.252-.252.253-.253.56-.46.758-.758.147-.221.092-.545.252-.758.592-.788.312-.03.758-.252.213-.107.274-.447.505-.505.245-.061.505 0 .758 0 .084 0 .177.038.252 0 .107-.053.14-.215.253-.253.858-.286.35.198.505.505.053.107.186.154.252.253.105.157.14.354.253.505.214.286.56.46.757.758.105.156.193.326.253.505.053.16-.12.386 0 .505.06.06.193-.06.252 0 .06.06 0 .168 0 .252v.253c0 .114.039.68 0 .757-.053.107-.199.147-.252.253-.075.15.075.355 0 .505-.053.107-.2.146-.253.253-.037.075.038.177 0 .252-.156.312-.243.253-.505.253M148.745 23.311c-.39.033-.292-1.107-.758-1.262-.25-.084-1.048.107-1.262 0-.076-.038.06-.193 0-.253-.025-.025-1.167 0-1.263 0-.168 0-.34-.033-.505 0-.261.052-.505.168-.758.253l-.757.252c-.885.295-1.58.57-2.273 1.263-.133.133-.12.372-.253.505-.785.786-.813.14-1.262 1.263-.063.156.053.345 0 .505-.038.113-.187.153-.253.252a2.136 2.136 0 0 0-.252.505c-.012.036-.048 1.42 0 1.515.053.107.199.147.252.253.075.15-.119.386 0 .505.06.06.177-.038.253 0 .213.107.284.417.505.505 2.928 1.171-.188-.173 1.515.253.182.046.322.207.505.252.245.061.505 0 .758 0 .61 0 1.208.083 1.767-.252.205-.123.301-.383.505-.505.229-.137.545-.093.758-.253.15-.113.135-.358.253-.505.223-.279.534-.479.757-.758.118-.147.156-.343.253-.505.156-.26.349-.497.505-.757.097-.162.168-.337.252-.505.169-.169.373-.307.505-.505.047-.07-.037-.178 0-.253.054-.106.2-.146.253-.253.075-.15-.168-.505 0-.505.084 0 0 .169 0 .253v6.566c0 .084.084.252 0 .252s0-.168 0-.252M151.018 21.038c.32.454-.16 1.037 0 1.516.037.113.186.153.252.252.105.157.193.327.253.505.11.33.097.7.252 1.01.107.213.417.285.505.506.094.234-.049.51 0 .757.037.185.169.337.253.505.084.253.209.495.253.758.041.249 0 .505 0 .757v3.283c0 .084.026.173 0 .253-.29.87-.253.187-.253.758 0 .084-.06.312 0 .252.626-.626-.014-.343.253-1.01.985-2.463.117.832.757-1.515.183-.67.286-1.362.505-2.02.12-.358.366-.661.505-1.01.198-.495.337-1.01.505-1.516.23-.69.432-1.369.758-2.02.084-.169.148-.349.253-.505.066-.1.168-.169.252-.253.084-.084.146-.2.253-.252.075-.038.193.06.252 0 .06-.06-.06-.193 0-.253s.169 0 .253 0c.119 0 1.251-.01 1.262 0 .06.06-.06.193 0 .253s.193-.06.253 0-.047.182 0 .252c.132.198.399.292.505.505.075.15-.075.355 0 .505.038.075.206-.07.253 0 .147.222.133.52.252.758.053.106.208.142.253.252.356.891.252 1.845.252 2.778v.758c0 .084.06.193 0 .253s-.193-.06-.252 0c-.06.06.037.177 0 .252-.054.107-.2.146-.253.253-.038.075.06.193 0 .252-.337.337-.252-.42-.252.253M163.392 19.523v11.112c0 .084.084.252 0 .252s0-.168 0-.252c0-.29-.05-.712 0-1.01.07-.424.192-.838.253-1.263.024-.167-.041-.342 0-.505.045-.183.168-.337.252-.505.169-.505.418-.99.505-1.515.083-.499-.062-1.014 0-1.516.024-.186.183-.33.253-.505.198-.494.267-1.039.505-1.515.136-.271.385-.479.505-.758.137-.319.143-.68.253-1.01.117-.352.584-1.032.757-1.262.072-.095.169-.169.253-.253.084-.084.146-.2.252-.252.076-.038.193.059.253 0 .133-.134.12-.372.252-.506.06-.06.178.038.253 0 .106-.053.146-.199.252-.252.455-.227.175.35.253.505.106.213.399.292.505.505.12.238.154.51.253.758.07.174.206.322.252.505.04.163 0 .336 0 .505v2.02c0 .114.038.681 0 .758-.053.106-.215.14-.252.252-.054.16.075.355 0 .505-.038.075-.215-.075-.253 0-.075.151.053.346 0 .505-.038.113-.191.151-.253.253-.193.323-.31.687-.505 1.01-.06.102-.199.146-.252.253-.77.178-.097.7-.253 1.01-.053.106-.199.146-.252.252-.12.238-.154.51-.253.758-.207.517-.581.987-.757 1.515-.027.08.037.177 0 .253-.334.667-.172-.162-.505.505-.05.1.051.706 0 .757-.06.06-.169 0-.253 0"/>
    </g>
</svg>